<svg xmlns="http://www.w3.org/2000/svg" viewBox="0 0 222.68 112.34"><defs><style>.cls-1{fill:#fff;}</style></defs><g id="Layer_2" data-name="Layer 2"><g id="Layer_3" data-name="Layer 3"><path class="cls-1" d="M96.88,29.32c-6.17,1-10.18-5.74-10.18-5.74C79.54,12.37,72.05,14.64,64.81,17S54,25.37,35.24,29A72.79,72.79,0,0,1,1.71,28c-1.28-.27-3.51,1,.92,7.19S21.28,57,39.45,64.57,66.89,76.9,73.82,74.43s13.81-8.91,15.51-11.66,4-4.57,6.65-2.49,1.2,5.54,1.2,5.54c-.32,4.71-3.94,12.11-6.09,15.3s-6.19,8.79-3.77,11.6,18.21,15.61,21.4,18.39a4.66,4.66,0,0,0,6.23,0s14.68-10.12,17.59-13,5.82-6.24,5.09-9.39-5.62-8.62-7.94-12.27S123.26,62.35,127.82,60,137,62.5,139,64.63s6.47,8,13.12,7.83,7.2,1,33.42-11.42,36.34-31.56,37-33.59-1.14-2-3-1.56a60.32,60.32,0,0,1-9.8,1.22A83.73,83.73,0,0,1,185,25.9c-13-2.38-18-5.86-20.09-7.12s-8.72-7-15.5-6.82-10.67,4.83-12.67,8.13-4.92,4.94-8.46,6-3.67-2.52-3.67-2.52-1-11.3-5.6-16.1c-4.39-4.56-3.6-4.71-10.9-7-3.35-1.06-8.33,0-10.52,1.86S95,6.33,94,7.65s-2,.82-4.25,2.77a19.2,19.2,0,0,0-3.88,5.72s5.85-3.69,14.1.12C100,16.26,108,27.54,96.88,29.32Z"/></g></g></svg>